<svg width="24" height="25" viewBox="0 0 24 25" fill="none" xmlns="http://www.w3.org/2000/svg">
<path d="M22.0827 11.8945C21.2588 10.1587 20.2783 8.74312 19.1413 7.64765L17.9488 8.84015C18.9212 9.76944 19.7683 10.9851 20.5007 12.4992C18.5507 16.5351 15.7827 18.4523 11.9999 18.4523C10.8644 18.4523 9.81856 18.2775 8.86231 17.9278L7.5702 19.2199C8.89833 19.8332 10.3749 20.1398 11.9999 20.1398C16.5046 20.1398 19.8655 17.7937 22.0827 13.1016C22.1718 12.9128 22.2181 12.7067 22.2181 12.498C22.2181 12.2893 22.1718 12.0832 22.0827 11.8945ZM20.5928 4.37952L19.5936 3.37921C19.5762 3.36178 19.5555 3.34795 19.5328 3.33851C19.51 3.32908 19.4856 3.32422 19.461 3.32422C19.4363 3.32422 19.4119 3.32908 19.3892 3.33851C19.3664 3.34795 19.3457 3.36178 19.3283 3.37921L16.765 5.9414C15.3517 5.21952 13.7633 4.85859 11.9999 4.85859C7.4952 4.85859 4.13427 7.20468 1.91708 11.8969C1.82796 12.0856 1.78174 12.2917 1.78174 12.5004C1.78174 12.7091 1.82796 12.9152 1.91708 13.1039C2.80286 14.9695 3.86927 16.4649 5.1163 17.5901L2.63614 20.0695C2.601 20.1047 2.58127 20.1524 2.58127 20.2021C2.58127 20.2518 2.601 20.2994 2.63614 20.3346L3.63669 21.3351C3.67185 21.3703 3.71952 21.39 3.76923 21.39C3.81893 21.39 3.86661 21.3703 3.90177 21.3351L20.5928 4.64484C20.6102 4.62742 20.624 4.60674 20.6335 4.58398C20.6429 4.56122 20.6478 4.53682 20.6478 4.51218C20.6478 4.48754 20.6429 4.46314 20.6335 4.44038C20.624 4.41762 20.6102 4.39694 20.5928 4.37952ZM3.49911 12.4992C5.45145 8.46327 8.21942 6.54608 11.9999 6.54608C13.2782 6.54608 14.4404 6.76546 15.4949 7.21148L13.8472 8.85913C13.0669 8.4428 12.1735 8.28828 11.2987 8.41838C10.4238 8.54848 9.61401 8.9563 8.98862 9.58169C8.36323 10.2071 7.95541 11.0169 7.82531 11.8917C7.69521 12.7665 7.84973 13.66 8.26606 14.4403L6.31091 16.3955C5.2288 15.4404 4.29598 14.1464 3.49911 12.4992ZM9.28114 12.4992C9.28155 12.0859 9.37944 11.6786 9.56687 11.3102C9.75429 10.9419 10.026 10.6229 10.3598 10.3793C10.6937 10.1357 11.0803 9.97425 11.4882 9.90811C11.8962 9.84197 12.314 9.87299 12.7077 9.99866L9.40559 13.3008C9.32283 13.0416 9.28084 12.7712 9.28114 12.4992Z" fill="white"/>
<path d="M11.9062 15.1247C11.8251 15.1247 11.7452 15.1209 11.6659 15.1137L10.428 16.3516C11.1726 16.6368 11.9838 16.7002 12.7636 16.5341C13.5435 16.368 14.2585 15.9796 14.8223 15.4158C15.3861 14.852 15.7745 14.137 15.9406 13.3571C16.1067 12.5773 16.0433 11.7661 15.7581 11.0215L14.5202 12.2595C14.5274 12.3387 14.5312 12.4186 14.5312 12.4997C14.5314 12.8445 14.4636 13.1859 14.3317 13.5045C14.1999 13.823 14.0065 14.1125 13.7627 14.3563C13.519 14.6 13.2295 14.7934 12.9109 14.9252C12.5924 15.0571 12.251 15.1249 11.9062 15.1247Z" fill="white"/>
</svg>
