<svg width="24" height="25" viewBox="0 0 24 25" fill="none" xmlns="http://www.w3.org/2000/svg">
<path d="M12.0001 5.5C5.69308 5.5 2.63308 11.183 2.09008 12.308C2.06069 12.3677 2.04541 12.4334 2.04541 12.5C2.04541 12.5666 2.06069 12.6323 2.09008 12.692C2.63208 13.817 5.69208 19.5 12.0001 19.5C18.3081 19.5 21.3671 13.817 21.9101 12.692C21.9395 12.6323 21.9547 12.5666 21.9547 12.5C21.9547 12.4334 21.9395 12.3677 21.9101 12.308C21.3681 11.183 18.3081 5.5 12.0001 5.5Z" stroke="#EFF2FC" stroke-width="2" stroke-linecap="round" stroke-linejoin="round"/>
<path d="M12 15.5C13.6569 15.5 15 14.1569 15 12.5C15 10.8431 13.6569 9.5 12 9.5C10.3431 9.5 9 10.8431 9 12.5C9 14.1569 10.3431 15.5 12 15.5Z" stroke="#EFF2FC" stroke-width="2" stroke-linecap="round" stroke-linejoin="round"/>
</svg>
